<svg width="60" height="60" viewBox="0 0 256 256"><path fill="#020202" d="M170 31c9.559 9.796 16.091 24.262 15.974 38.055q-.15 3.319-.316 6.638c-.936 9.63-.936 9.63 2.576 18.077 3.004 1.68 3.004 1.68 6.325 2.859 4.057 1.616 6.617 3.715 9.754 6.683l1.518 1.43c9.633 9.351 16.166 20.53 16.462 34.06.138 18.376-5.264 32.665-18.308 45.959l-2.548 2.489-2.676 2.635C191.995 196.381 185.599 201.141 177 205q-1.84.914-3.676 1.836c-12.345 6.002-26.33 10.39-40.135 10.247-3.241-.032-6.035.126-9.189.917-3.37 3.576-5.07 7.528-7 12-2.85 4.419-5.936 7.372-11 9-10.545 1.269-17.684-.925-26.012-7.309-14.345-12.244-21.895-34.41-29.728-51.03a657 657 0 0 0-3.342-6.942c-7.646-15.777-14.081-32.99-10.27-50.739 1.734-4.703 3.953-7.638 7.414-11.23 1.96-2.103 1.96-2.103 2.938-4.75-.701-3.904-1.954-7.146-3.562-10.766-4.255-9.573-3.937-23.421-.34-33.234 3.367-7.465 9.257-13.854 16.965-16.937C69.186 43.508 78.536 43.888 87 48l1.574-2.633C96.728 31.834 104.326 23.505 120 19c16.357-3.486 37.139 1.13 50 12"/><path fill="#E5FCDB" d="M116.188 80.438c9.292 8.466 11.678 18.94 13.187 30.996.693 2.844 1.267 3.87 3.625 5.566 4.102.848 4.102.848 8 0 2.236-2.115 4.084-4.415 6.031-6.797 4.404-4.928 9.212-5.31 15.628-5.701 12.653-.39 21.434 5.017 30.923 13.123 3.48 3.419 6.077 7.11 8.418 11.375l1.129 1.723c2.747 7.18 1.945 18.677-.691 25.84C195.568 170.517 182.72 182.149 169 189l-3.012 1.613c-9.66 4.885-26.964 11.626-37.988 8.387-5.297-3.54-7.168-6.716-9.062-12.687a761 761 0 0 0-1.504-4.329l-.731-2.095c-.887-2.384-1.996-4.59-3.203-6.827-2.155-4.098-3.661-8.306-5.125-12.687-5.245-15.418-11.794-31.014-21.466-44.203-2.207-3.175-3.205-5.438-2.83-9.242C86.088 96.669 92.39 87.945 100 81c5.139-3.212 10.773-3.005 16.188-.562"/><path fill="#E3F9D9" d="M67.488 119.098c7.935 2.85 11.662 13.9 15.075 21.027 5.085 10.966 9.656 22.136 13.937 33.438 2.201 5.803 4.654 11.477 7.178 17.146 3.117 7.011 4.205 12.611 3.322 20.291-1.426 3.63-3.212 7.212-6 10-4.387 0-7.076-.61-10.375-3.562C79.835 205.52 73.665 188.399 67 174l-1.186-2.56A549 549 0 0 1 59 156l-.821-1.884C54.336 145.195 52.43 136.716 54 127c2.453-6.11 6.984-8.457 13.488-7.902"/><path fill="#E4FADA" d="M156 43c6.175 5.17 8.804 11.396 11 19l.537 1.848c.52 2.421.593 4.625.596 7.101l.004 2.819-.012 2.92.012 2.955-.004 2.806-.004 2.573C168 87 168 87 167 88c-2.185.16-4.374.278-6.562.375-4.328.264-8.05.575-12.063 2.25C145 92 145 92 142.906 91.902 141 91 141 91 139.946 88.777l-.821-2.84c-3.497-10.463-9.872-16.31-19.25-21.75-5.561-2.214-11.973-1.95-17.875-2.187 1.07-8.566 5.812-15.753 12.094-21.594C125.745 31.811 144.552 35.823 156 43"/><path fill="#E2F8D8" d="M77 63c2.838 1.809 5.437 3.823 8 6-.274 4.515-2.297 6.482-5.246 9.715C74.509 85.548 71.33 94.109 68 102c-3-1-3-1-4.098-2.637l-.965-2.05-.972-2.012c-2.31-5.509-3.329-10.326-3.34-16.301l-.074-2.078C58.52 71.794 59.74 68.912 63 65c5.001-2.925 8.427-3.662 14-2"/><path fill="#090A09" d="M173 148.875c3 .125 3 .125 4 1.125.863 6.324.247 11.158-3.523 16.371-2.84 3.133-5.542 4.393-9.72 4.902-3.503.15-6.088.02-9.32-1.398-2.043-2.666-1.792-4.61-1.437-7.875l1-1c2.524.05 5.035.198 7.555.355 2.568-.121 2.568-.121 4.195-2.136 1.656-2.94 2.391-5.968 3.25-9.219 1-1 1-1 4-1.125"/><path fill="#0F110F" d="M91.438 186.875c3.147 1.382 4.3 3.183 5.84 6.21 1.043 2.766 1.128 5.005.722 7.915-2 2-2 2-4.312 2.625-3.293-.766-3.676-1.56-5.5-4.312C86.394 196.11 85.15 193.719 86 190c1.623-2.563 2.399-2.97 5.438-3.125"/><path fill="#141613" d="M180 131c5.568.568 5.568.568 7 2 .188 2.938.188 2.938 0 6l-2 2c-3.297-.33-4.623-.623-7-3-.25-2.5-.25-2.5 0-5z"/><path fill="#0D0E0C" d="M134.5 160.75c2.5.25 2.5.25 4.5 2.25.25 2.5.25 2.5 0 5-2 2-2 2-4.5 2.25C132 170 132 170 130 168c-.25-2.5-.25-2.5 0-5 2-2 2-2 4.5-2.25"/></svg>