<?xml version="1.0" encoding="UTF-8"?>
<svg version="1.1" xmlns="http://www.w3.org/2000/svg" width="256" height="256">
<path d="M0 0 C9.55852743 9.79566647 16.09096675 24.26249135 15.97412109 38.0546875 C15.87326787 40.26754529 15.76779822 42.480197 15.65795898 44.69262695 C14.72204025 54.32312993 14.72204025 54.32312993 18.234375 62.76953125 C21.23809412 64.450337 21.23809412 64.450337 24.55859375 65.62890625 C28.61565985 67.24528559 31.1760224 69.34415521 34.3125 72.3125 C34.81362305 72.78397461 35.31474609 73.25544922 35.83105469 73.74121094 C45.46448938 83.09300369 51.99737248 94.27216342 52.29272461 107.80273438 C52.4306385 126.17763232 47.02867974 140.46662481 33.98535156 153.76098633 C32.72416504 154.9930481 32.72416504 154.9930481 31.4375 156.25 C30.11250488 157.55457153 30.11250488 157.55457153 28.76074219 158.88549805 C21.99528715 165.38104807 15.59898384 170.1408473 7 174 C5.77334718 174.60918343 4.54812958 175.22126371 3.32421875 175.8359375 C-9.02121617 181.83762644 -23.00678277 186.22505229 -36.8112793 186.08325195 C-40.05226323 186.05066191 -42.84610039 186.20869902 -46 187 C-49.36962817 190.5757046 -51.07017986 194.52790182 -53 199 C-55.84927864 203.41894112 -58.93620338 206.37235109 -64 208 C-74.5454067 209.26883236 -81.68377121 207.07508588 -90.01171875 200.69140625 C-104.35746865 188.44669818 -111.90714587 166.28075867 -119.73974609 149.66015625 C-120.83943087 147.33893089 -121.95520654 145.02687836 -123.08203125 142.71875 C-130.72813867 126.94222116 -137.1630951 109.72935246 -133.3515625 91.98046875 C-131.61820219 87.27669184 -129.39887876 84.34249159 -125.9375 80.75 C-123.97714897 78.64710706 -123.97714897 78.64710706 -123 76 C-123.70145598 72.09624497 -124.95372571 68.85411714 -126.5625 65.234375 C-130.81734258 55.66097919 -130.49916142 41.81251641 -126.90234375 32 C-123.53457094 24.53549924 -117.64506492 18.14552597 -109.9375 15.0625 C-100.81449574 12.50805881 -91.46409073 12.88762687 -83 17 C-82.48050781 16.13117187 -81.96101563 15.26234375 -81.42578125 14.3671875 C-73.272398 0.83441409 -65.67448265 -7.49475948 -50 -12 C-33.64338777 -15.48583539 -12.8613259 -10.87088261 0 0 Z " fill="#020202" transform="translate(170,31)"/>
<path d="M0 0 C9.2923558 8.46636862 11.67854172 18.94014583 13.1875 30.99609375 C13.88021607 33.8405591 14.45483687 34.86741199 16.8125 36.5625 C20.91421208 37.41012522 20.91421208 37.41012522 24.8125 36.5625 C27.04862678 34.44747873 28.89649276 32.14727039 30.84375 29.765625 C35.24769309 24.83740297 40.0554047 24.45554342 46.47192383 24.06445312 C59.12420743 23.67437922 67.9056916 29.08159369 77.39453125 37.1875 C80.87503947 40.60615751 83.47198521 44.29738072 85.8125 48.5625 C86.18503906 49.13097656 86.55757813 49.69945312 86.94140625 50.28515625 C89.6880802 57.46592267 88.88640336 68.96258229 86.25 76.125 C79.37994017 90.07906617 66.53297548 101.71106873 52.8125 108.5625 C51.81863281 109.09488281 50.82476562 109.62726563 49.80078125 110.17578125 C40.14112239 115.06015079 22.83672823 121.80136997 11.8125 118.5625 C6.51522856 115.02201108 4.64434582 111.84627684 2.75 105.875 C2.25303967 104.43079034 1.75174061 102.9880663 1.24609375 101.546875 C0.88427002 100.50950195 0.88427002 100.50950195 0.51513672 99.45117188 C-0.37153823 97.06780933 -1.48057644 94.86147177 -2.6875 92.625 C-4.84200224 88.52602562 -6.3485741 84.31804815 -7.8125 79.9375 C-13.05799224 64.51967468 -19.60615891 48.92328176 -29.27832031 35.73413086 C-31.48587408 32.55999028 -32.48338769 30.29614828 -32.109375 26.4921875 C-30.09873937 16.23152361 -23.79646692 7.50741163 -16.1875 0.5625 C-11.04874732 -2.64922043 -5.41497776 -2.44204879 0 0 Z " fill="#E5FCDB" transform="translate(116.1875,80.4375)"/>
<path d="M0 0 C7.93485171 2.85062324 11.66206253 13.90003241 15.07421875 21.02734375 C20.15922835 31.99294716 24.73039252 43.16381056 29.01171875 54.46484375 C31.21297795 60.2688305 33.66593706 65.94229421 36.18945312 71.61157227 C39.30650191 78.62230531 40.39454565 84.22269901 39.51171875 91.90234375 C38.08553877 95.532152 36.29947346 99.11458904 33.51171875 101.90234375 C29.12457114 101.90234375 26.43590093 101.2921493 23.13671875 98.33984375 C12.34651742 86.42266583 6.17598097 69.30168536 -0.48828125 54.90234375 C-1.07536865 53.63511475 -1.07536865 53.63511475 -1.67431641 52.34228516 C-4.02898373 47.22967634 -6.29192083 42.08473868 -8.48828125 36.90234375 C-8.75930664 36.28069336 -9.03033203 35.65904297 -9.30957031 35.01855469 C-13.15234832 26.0969612 -15.05806065 17.6189345 -13.48828125 7.90234375 C-11.03487752 1.79270022 -6.5044048 -0.55418696 0 0 Z " fill="#E3F9D9" transform="translate(67.48828125,119.09765625)"/>
<path d="M0 0 C6.17534505 5.17062622 8.80393232 11.39641083 11 19 C11.17724609 19.60980713 11.35449219 20.21961426 11.53710938 20.84790039 C12.05790873 23.26923284 12.12953608 25.47294701 12.1328125 27.94921875 C12.13410156 28.87927734 12.13539063 29.80933594 12.13671875 30.76757812 C12.13285156 31.73115234 12.12898438 32.69472656 12.125 33.6875 C12.12886719 34.66267578 12.13273437 35.63785156 12.13671875 36.64257812 C12.13542969 37.56876953 12.13414062 38.49496094 12.1328125 39.44921875 C12.13168457 40.29830811 12.13055664 41.14739746 12.12939453 42.0222168 C12 44 12 44 11 45 C8.81478928 45.16011042 6.62639854 45.27750929 4.4375 45.375 C0.10957804 45.63916614 -3.61273331 45.95004996 -7.625 47.625 C-11 49 -11 49 -13.09375 48.90234375 C-15 48 -15 48 -16.0546875 45.77734375 C-16.32539063 44.84019531 -16.59609375 43.90304688 -16.875 42.9375 C-20.37196472 32.4737141 -26.74682606 26.62684089 -36.125 21.1875 C-41.6862786 18.97340782 -48.09792289 19.23739284 -54 19 C-52.93075333 10.43359355 -48.1876212 3.24682322 -41.90625 -2.59375 C-30.25453011 -11.18928107 -11.44790485 -7.17695573 0 0 Z " fill="#E4FADA" transform="translate(156,43)"/>
<path d="M0 0 C2.83802037 1.80873834 5.43653361 3.82271816 8 6 C7.72637062 10.51488472 5.70285842 12.48165522 2.75390625 15.71484375 C-2.49066846 22.54797561 -5.66852725 31.10914007 -9 39 C-12 38 -12 38 -13.09765625 36.36328125 C-13.41605469 35.68652344 -13.73445313 35.00976562 -14.0625 34.3125 C-14.38347656 33.64863281 -14.70445313 32.98476562 -15.03515625 32.30078125 C-17.34520111 26.79221273 -18.363769 21.97489053 -18.375 16 C-18.41173828 14.97132812 -18.41173828 14.97132812 -18.44921875 13.921875 C-18.47857581 8.79417463 -17.25866434 5.9115631 -14 2 C-8.99862079 -0.92533501 -5.57328941 -1.66220912 0 0 Z " fill="#E2F8D8" transform="translate(77,63)"/>
<path d="M0 0 C3 0.125 3 0.125 4 1.125 C4.86292942 7.44903989 4.24672235 12.28316323 0.4765625 17.49609375 C-2.36375193 20.6294565 -5.06524407 21.88905416 -9.2421875 22.3984375 C-12.74617239 22.54778768 -15.33099585 22.41870914 -18.5625 21 C-20.60624981 18.33423937 -20.35491855 16.39025064 -20 13.125 C-19.67 12.795 -19.34 12.465 -19 12.125 C-16.47567622 12.17476266 -13.96507721 12.32252431 -11.4453125 12.48046875 C-8.87677411 12.35890794 -8.87677411 12.35890794 -7.25 10.34375 C-5.59375869 7.40392168 -4.85869202 4.37576264 -4 1.125 C-3 0.125 -3 0.125 0 0 Z " fill="#090A09" transform="translate(173,148.875)"/>
<path d="M0 0 C3.14743023 1.38179864 4.30077693 3.18265218 5.83984375 6.2109375 C6.88372028 8.97579966 6.96853401 11.2150896 6.5625 14.125 C4.5625 16.125 4.5625 16.125 2.25 16.75 C-1.04275038 15.9842441 -1.42523493 15.19019958 -3.25 12.4375 C-5.04340166 9.23540114 -6.2875566 6.84399762 -5.4375 3.125 C-3.81449441 0.56235959 -3.03884562 0.15583824 0 0 Z " fill="#0F110F" transform="translate(91.4375,186.875)"/>
<path d="M0 0 C5.56818182 0.56818182 5.56818182 0.56818182 7 2 C7.1875 4.9375 7.1875 4.9375 7 8 C6.34 8.66 5.68 9.32 5 10 C1.70285207 9.67028521 0.3773161 9.3773161 -2 7 C-2.25 4.5 -2.25 4.5 -2 2 C-1.34 1.34 -0.68 0.68 0 0 Z " fill="#141613" transform="translate(180,131)"/>
<path d="M0 0 C2.5 0.25 2.5 0.25 4.5 2.25 C4.75 4.75 4.75 4.75 4.5 7.25 C2.5 9.25 2.5 9.25 0 9.5 C-2.5 9.25 -2.5 9.25 -4.5 7.25 C-4.75 4.75 -4.75 4.75 -4.5 2.25 C-2.5 0.25 -2.5 0.25 0 0 Z " fill="#0D0E0C" transform="translate(134.5,160.75)"/>
</svg>
